<svg width="25" height="25" viewBox="0 0 25 25" fill="none" xmlns="http://www.w3.org/2000/svg">
<path d="M5.5 19.5H6.925L16.7 9.725L15.275 8.3L5.5 18.075V19.5ZM3.5 21.5V17.25L16.7 4.075C16.9 3.89167 17.1208 3.75 17.3625 3.65C17.6042 3.55 17.8583 3.5 18.125 3.5C18.3917 3.5 18.65 3.55 18.9 3.65C19.15 3.75 19.3667 3.9 19.55 4.1L20.925 5.5C21.125 5.68333 21.2708 5.9 21.3625 6.15C21.4542 6.4 21.5 6.65 21.5 6.9C21.5 7.16667 21.4542 7.42083 21.3625 7.6625C21.2708 7.90417 21.125 8.125 20.925 8.325L7.75 21.5H3.5ZM15.975 9.025L15.275 8.3L16.7 9.725L15.975 9.025Z" fill="white"/>
</svg>
