<svg width="16" height="17" viewBox="0 0 16 17" fill="currentColor" xmlns="http://www.w3.org/2000/svg">
<path d="M13.9348 8.85607C13.9996 8.68591 14.0166 8.49868 13.9835 8.31805C13.9504 8.13742 13.8687 7.97152 13.7487 7.84133L10.32 4.11752C10.2409 4.02861 10.1463 3.95768 10.0417 3.90889C9.93713 3.8601 9.82465 3.83442 9.71083 3.83335C9.59701 3.83227 9.48414 3.85583 9.37879 3.90264C9.27344 3.94945 9.17774 4.01857 9.09725 4.10598C9.01677 4.19339 8.95312 4.29733 8.91002 4.41175C8.86692 4.52616 8.84523 4.64874 8.84622 4.77235C8.84721 4.89597 8.87085 5.01813 8.91578 5.13171C8.9607 5.24529 9.02601 5.34801 9.10788 5.43389L11.0743 7.56949H2.8572C2.62985 7.56949 2.41182 7.66758 2.25107 7.84216C2.09031 8.01675 2 8.25354 2 8.50045C2 8.74735 2.09031 8.98414 2.25107 9.15873C2.41182 9.33331 2.62985 9.4314 2.8572 9.4314H11.0743L9.10874 11.5661C9.02686 11.6519 8.96156 11.7547 8.91664 11.8683C8.87171 11.9818 8.84806 12.104 8.84707 12.2276C8.84609 12.3512 8.86778 12.4738 8.91088 12.5882C8.95398 12.7026 9.01763 12.8066 9.09811 12.894C9.17859 12.9814 9.2743 13.0505 9.37965 13.0973C9.485 13.1441 9.59787 13.1677 9.71169 13.1666C9.82551 13.1655 9.93799 13.1399 10.0426 13.0911C10.1472 13.0423 10.2417 12.9714 10.3208 12.8824L13.7496 9.15863C13.829 9.07196 13.8919 8.96915 13.9348 8.85607V8.85607Z"/>
</svg>
