<svg width="12" height="14" viewBox="0 0 12 14" fill="none" xmlns="http://www.w3.org/2000/svg">
<path d="M4 10.0002C3.53333 10.0002 3.13889 9.83905 2.81667 9.51683C2.49444 9.19461 2.33333 8.80016 2.33333 8.3335C2.33333 7.86683 2.49444 7.47239 2.81667 7.15016C3.13889 6.82794 3.53333 6.66683 4 6.66683C4.46667 6.66683 4.86111 6.82794 5.18333 7.15016C5.50556 7.47239 5.66667 7.86683 5.66667 8.3335C5.66667 8.80016 5.50556 9.19461 5.18333 9.51683C4.86111 9.83905 4.46667 10.0002 4 10.0002ZM1.33333 13.6668C0.966667 13.6668 0.652778 13.5363 0.391667 13.2752C0.130556 13.0141 0 12.7002 0 12.3335V3.00016C0 2.6335 0.130556 2.31961 0.391667 2.0585C0.652778 1.79739 0.966667 1.66683 1.33333 1.66683H2V0.333496H3.33333V1.66683H8.66667V0.333496H10V1.66683H10.6667C11.0333 1.66683 11.3472 1.79739 11.6083 2.0585C11.8694 2.31961 12 2.6335 12 3.00016V12.3335C12 12.7002 11.8694 13.0141 11.6083 13.2752C11.3472 13.5363 11.0333 13.6668 10.6667 13.6668H1.33333ZM1.33333 12.3335H10.6667V5.66683H1.33333V12.3335Z" fill="#40AFFF"/>
</svg>
